<svg xmlns="http://www.w3.org/2000/svg" width="780" height="440" viewBox="0 0 780 440"><defs><style>.a{fill:#ff95c1;}.b{fill:#fff;}.c{fill:#162020;}.d{fill:#9180f4;}.e{fill:#6f5ed3;}.f{fill:#c1c1f7;}.g{fill:#ef588b;}.h{fill:#f3f4f4;}</style></defs><rect class="a" x="0.0018" y="0.0014" width="780" height="440"></rect><path class="b" d="M457.1613,245.7829V89.9076a14.8348,14.8348,0,0,0-14.8349-14.8347H335.1011a14.8344,14.8344,0,0,0-14.8343,14.8782l.7526,256.8073a14.8239,14.8239,0,0,0,.4576,3.5547c.1305,9.1651,8.8563,16.5626,19.6148,16.5626h97.399c10.84,0,19.6269-7.5074,19.6269-16.7684V245.7829Z"></path><path class="c" d="M438.4912,367.501H341.0918c-10.9971,0-20.0586-7.668-20.2393-17.1065a15.5709,15.5709,0,0,1-.458-3.6338l-.7529-256.8076a15.46,15.46,0,0,1,15.46-15.5053H442.3262a15.4777,15.4777,0,0,1,15.46,15.46V245.1582h.9561V350.1074C458.7422,359.6982,449.6572,367.501,438.4912,367.501ZM335.1016,75.6978a14.21,14.21,0,0,0-14.21,14.2514l.7529,256.8076a14.3408,14.3408,0,0,0,.4385,3.4053l.0186.1426c.125,8.793,8.6445,15.9463,18.99,15.9463h97.3994c10.4776,0,19.001-7.2422,19.001-16.1436V246.4082h-.9561v-156.5a14.2263,14.2263,0,0,0-14.21-14.21Z"></path><path class="c" d="M567.69,97.9521a5.5129,5.5129,0,1,1,4.2294-1.9682v0A5.5051,5.5051,0,0,1,567.69,97.9521Zm.0078-9.7753a4.2627,4.2627,0,1,0,2.7382.9956A4.2594,4.2594,0,0,0,567.6973,88.1768Zm3.7431,7.4057h0Z"></path><path class="c" d="M559.8613,142.1558a.6231.6231,0,0,1-.4013-.146l-8.58-7.1973a.6249.6249,0,1,1,.8027-.958l8.58,7.1973a.6251.6251,0,0,1-.4014,1.104Z"></path><path class="c" d="M551.9727,142.8467a.625.625,0,0,1-.4786-1.0269l7.1973-8.5791a.6249.6249,0,1,1,.957.8037l-7.1972,8.5791A.6237.6237,0,0,1,551.9727,142.8467Z"></path><path class="c" d="M598.2266,136.3247a.626.626,0,0,1-.6231-.57l-.7646-8.7354a.6258.6258,0,0,1,.5683-.6772l8.7354-.7656a.6376.6376,0,0,1,.456.1435.6277.6277,0,0,1,.2217.4243l.7647,8.7354a.6258.6258,0,0,1-.5684.6772l-8.7354.7657C598.2627,136.3237,598.2451,136.3247,598.2266,136.3247Zm-.0879-8.7925.6562,7.49,7.49-.6563-.6563-7.49Z"></path><path class="c" d="M165.11,299.0527c-.1631,0-.3272-.0068-.4913-.0215a5.4979,5.4979,0,1,1,.4913.0215Zm-.0166-9.7812a4.2654,4.2654,0,1,0,2.748,7.5332h0a4.2653,4.2653,0,0,0-2.3691-7.5166C165.3457,289.2773,165.22,289.2715,165.0938,289.2715Z"></path><path class="c" d="M214.1914,286.3291a.6226.6226,0,0,1-.4785-.2236l-7.1973-8.5791a.6246.6246,0,0,1,.9571-.8028l7.1972,8.5791a.6251.6251,0,0,1-.4785,1.0264Z"></path><path class="c" d="M206.3037,285.6387a.625.625,0,0,1-.4014-1.1035l8.5791-7.1973a.6246.6246,0,1,1,.8028.957l-8.5791,7.1973A.6214.6214,0,0,1,206.3037,285.6387Z"></path><path class="c" d="M207.5957,333.4307c-.0186,0-.0361-.001-.0547-.002l-8.7353-.7656a.6266.6266,0,0,1-.5684-.6777l.7647-8.7354a.6256.6256,0,0,1,.2216-.4238.6576.6576,0,0,1,.4561-.1446l8.7353.7657a.6265.6265,0,0,1,.5684.6777l-.7646,8.7354a.6271.6271,0,0,1-.6231.57Zm-8.0586-1.959,7.49.6572.6563-7.49-7.49-.6573Z"></path><rect class="d" x="455.7195" y="161.0013" width="134.0064" height="99.7764"></rect><path class="c" d="M590.3506,261.4023H455.0947V160.3765H590.3506Zm-134.0059-1.25H589.1006V161.6265H456.3447Z"></path><circle class="b" cx="551.2816" cy="182.1908" r="12.6321"></circle><path class="c" d="M551.2812,195.4478a13.2571,13.2571,0,1,1,13.2579-13.2569A13.2719,13.2719,0,0,1,551.2812,195.4478Zm0-25.2642a12.0071,12.0071,0,1,0,12.0079,12.0073A12.0208,12.0208,0,0,0,551.2812,170.1836Z"></path><path class="e" d="M589.7139,260.7678h-13.757l-31.6293-35.7619L564.3968,202.17l25.3171,28.8792Z"></path><path class="c" d="M589.7139,261.3926H575.6758l-32.1817-36.3858,20.9034-23.7841,25.9414,29.5908v29.9638h-.625Zm-13.4756-1.25h12.8506V231.2842l-24.6934-28.167L545.16,225.0049Z"></path><polygon class="f" points="580.537 260.778 500.331 171.293 455.772 221.847 455.72 260.778 580.537 260.778"></polygon><path class="c" d="M581.9365,261.4023H455.0938l.0527-39.791.1562-.1767,45.0244-51.0825Zm-125.5908-1.25h122.792L500.335,172.2339l-43.9385,49.85Z"></path><rect class="d" x="588.4231" y="161.0013" width="134.0064" height="99.7764"></rect><path class="c" d="M723.0547,261.4023H587.7979V160.3765H723.0547Zm-134.0068-1.25H721.8047V161.6265H589.0479Z"></path><circle class="b" cx="683.9852" cy="182.1908" r="12.6321"></circle><path class="c" d="M683.9854,195.4478a13.2571,13.2571,0,1,1,13.2568-13.2569A13.272,13.272,0,0,1,683.9854,195.4478Zm0-25.2642a12.0071,12.0071,0,1,0,12.0068,12.0073A12.0208,12.0208,0,0,0,683.9854,170.1836Z"></path><path class="e" d="M722.4175,260.7678h-13.757l-31.6293-35.7619L697.1,202.17l25.3171,28.8792Z"></path><path class="c" d="M722.418,261.3926H708.3789l-32.1807-36.3858,20.9034-23.7841,25.9414,29.5908v29.9638h-.625Zm-13.4766-1.25H721.793V231.2842L697.1,203.1172l-19.2353,21.8877Z"></path><polygon class="f" points="713.241 260.778 633.034 171.293 588.475 221.847 588.423 260.778 713.241 260.778"></polygon><path class="c" d="M714.64,261.4023H587.7969l.0537-39.791.1562-.1767L633.03,170.3521Zm-125.5908-1.25h122.792l-78.8027-87.9184-43.9375,49.85Z"></path><rect class="d" x="56.306" y="161.0013" width="134.0064" height="99.7764"></rect><path class="c" d="M190.9375,261.4023H55.6807V160.3765H190.9375Zm-134.0068-1.25H189.6875V161.6265H56.9307Z"></path><circle class="b" cx="151.868" cy="182.1908" r="12.6321"></circle><path class="c" d="M151.8682,195.4478a13.2571,13.2571,0,1,1,13.2568-13.2569A13.272,13.272,0,0,1,151.8682,195.4478Zm0-25.2642a12.0071,12.0071,0,1,0,12.0068,12.0073A12.0208,12.0208,0,0,0,151.8682,170.1836Z"></path><path class="e" d="M190.3,260.7678h-13.757L144.914,225.0059,164.9833,202.17,190.3,231.049Z"></path><path class="c" d="M190.3008,261.3926H176.2617l-32.1806-36.3858,20.9033-23.7841,25.9414,29.5908v29.9638h-.625Zm-13.4766-1.25h12.8516V231.2842l-24.6934-28.167-19.2353,21.8877Z"></path><polygon class="f" points="181.123 260.778 100.917 171.293 56.358 221.847 56.306 260.778 181.123 260.778"></polygon><path class="c" d="M182.5225,261.4023H55.68l.0537-39.791.1562-.1767,45.0235-51.0825Zm-125.5909-1.25h122.792l-78.8027-87.9184-43.9375,49.85Z"></path><rect class="d" x="189.0095" y="161.0013" width="134.0064" height="99.7764"></rect><path class="c" d="M323.6406,261.4023H188.3848V160.3765H323.6406Zm-134.0058-1.25H322.3906V161.6265H189.6348Z"></path><circle class="b" cx="284.5716" cy="182.1908" r="12.6321"></circle><path class="c" d="M284.5713,195.4478a13.2571,13.2571,0,1,1,13.2578-13.2569A13.2719,13.2719,0,0,1,284.5713,195.4478Zm0-25.2642a12.0071,12.0071,0,1,0,12.0078,12.0073A12.0208,12.0208,0,0,0,284.5713,170.1836Z"></path><path class="e" d="M323.004,260.7678H309.247l-31.6294-35.7619L297.6868,202.17,323.004,231.049Z"></path><path class="c" d="M323.0039,261.3926H308.9658l-32.1816-36.3858,20.9033-23.7841,25.9414,29.5908v29.9638h-.625Zm-13.4756-1.25h12.8506V231.2842l-24.6934-28.167L278.45,225.0049Z"></path><polygon class="f" points="313.827 260.778 233.621 171.293 189.062 221.847 189.01 260.778 313.827 260.778"></polygon><path class="c" d="M315.2266,261.4023H188.3838l.0527-39.791.1563-.1767,45.0244-51.0825Zm-125.5909-1.25h122.792L233.625,172.2339l-43.9385,49.85Z"></path><rect class="c" x="329.4297" y="276.5" width="114.7363" height="1.25"></rect><rect class="c" x="329.4297" y="284.3242" width="117.5869" height="1.25"></rect><rect class="c" x="329.4297" y="292.1484" width="99.7715" height="1.25"></rect><rect class="c" x="329.4297" y="299.9717" width="22.8047" height="1.25"></rect><circle class="d" cx="336.5411" cy="145.5087" r="7.8391"></circle><path class="c" d="M336.541,153.9727a8.4642,8.4642,0,1,1,8.4639-8.4639A8.4735,8.4735,0,0,1,336.541,153.9727Zm0-15.6783a7.2142,7.2142,0,1,0,7.2139,7.2144A7.2225,7.2225,0,0,0,336.541,138.2944Z"></path><rect class="c" x="349.8086" y="150.2061" width="22.8047" height="1.25"></rect><rect class="d" x="350.0966" y="141.5664" width="37.7704" height="3.5632"></rect><path class="c" d="M388.4922,145.7549H349.4717v-4.8135h39.0205Zm-37.7705-1.25h36.5205v-2.3135H350.7217Z"></path><rect class="d" x="323.016" y="161.0013" width="134.0064" height="99.7764"></rect><path class="c" d="M457.6475,261.4023H322.3906V160.3765H457.6475Zm-134.0069-1.25H456.3975V161.6265H323.6406Z"></path><circle class="b" cx="418.578" cy="182.1908" r="12.6321"></circle><path class="c" d="M418.5781,195.4478a13.2571,13.2571,0,1,1,13.2569-13.2569A13.2719,13.2719,0,0,1,418.5781,195.4478Zm0-25.2642a12.0071,12.0071,0,1,0,12.0069,12.0073A12.0208,12.0208,0,0,0,418.5781,170.1836Z"></path><path class="e" d="M457.01,260.7678h-13.757L411.624,225.0059,431.6933,202.17,457.01,231.049Z"></path><path class="c" d="M457.0107,261.3926h-14.039L410.791,225.0068l20.9033-23.7841,25.9414,29.5908v29.9638h-.625Zm-13.4765-1.25h12.8515V231.2842l-24.6933-28.167L412.457,225.0049Z"></path><polygon class="f" points="447.833 260.778 367.627 171.293 323.068 221.847 323.016 260.778 447.833 260.778"></polygon><path class="c" d="M449.2324,261.4023H322.39l.0538-39.791.1562-.1767,45.0234-51.0825Zm-125.5908-1.25h122.792l-78.8027-87.9184-43.9375,49.85Z"></path><path class="g" d="M463.4987,138.6113h-.4152V92.1863a21.26,21.26,0,0,0-21.26-21.26h-103.3a22.0869,22.0869,0,0,0-22.0222,22.0221v17.0111a1.2457,1.2457,0,0,0-1.2456,1.2458v8.72a1.2457,1.2457,0,0,0,1.2456,1.2458v10.3811a1.2456,1.2456,0,0,0-1.2456,1.2458v18.6862a1.2456,1.2456,0,0,0,1.2456,1.2457v6.2287a1.2456,1.2456,0,0,0-1.2456,1.2458v18.6862a1.2456,1.2456,0,0,0,1.2456,1.2457V346.9833a22.1558,22.1558,0,0,0,22.0908,22.0907H441.8232a21.3228,21.3228,0,0,0,21.26-21.26V173.077h.4152a1.2459,1.2459,0,0,0,1.246-1.2457V139.857A1.2459,1.2459,0,0,0,463.4987,138.6113Zm-8.3049,207.4145c0,7.2507-5.3543,13.4975-12.6052,13.4975H339.1919a13.8182,13.8182,0,0,1-13.5554-13.4975V91.3677c0-7.2507,6.3048-12.552,13.5554-12.552h11.9537c2.527,0,3.4614-.2884,3.614,2.9144a6.1836,6.1836,0,0,0,1.6679,4.0279,8.9824,8.9824,0,0,0,3.8689,2.3975,11.5043,11.5043,0,0,0,3.33.6262h54.6384a11.5936,11.5936,0,0,0,3.33-.694,9.0435,9.0435,0,0,0,3.8687-2.3233,5.9492,5.9492,0,0,0,1.6681-3.9535c.1529-3.2028,1.0869-2.9952,3.614-2.9952h11.8423a12.2093,12.2093,0,0,1,12.6052,12.552Z"></path><path class="c" d="M441.8232,369.6992H338.5918a22.7417,22.7417,0,0,1-22.7158-22.7158v-166.33a1.8734,1.8734,0,0,1-1.2461-1.7632V160.2041a1.8734,1.8734,0,0,1,1.2461-1.7632v-5.1933a1.8742,1.8742,0,0,1-1.2461-1.7637v-18.686a1.8734,1.8734,0,0,1,1.2461-1.7632v-9.3462a1.8734,1.8734,0,0,1-1.2461-1.7632v-8.72a1.8741,1.8741,0,0,1,1.2461-1.7637V92.9482a22.6728,22.6728,0,0,1,22.6474-22.6474h103.3A21.91,21.91,0,0,1,463.708,92.186v45.812a1.8734,1.8734,0,0,1,1.6621,1.8589v31.9742a1.8737,1.8737,0,0,1-1.6621,1.8593V347.8135A21.91,21.91,0,0,1,441.8232,369.6992ZM316.501,159.5835a.6213.6213,0,0,0-.6211.6206v18.6865a.6213.6213,0,0,0,.6211.6206h.625V346.9834a21.4906,21.4906,0,0,0,21.4658,21.4658H441.8232a20.6584,20.6584,0,0,0,20.6348-20.6357V172.4521h1.041a.6217.6217,0,0,0,.6211-.621V139.8569a.6213.6213,0,0,0-.6211-.6206h-1.041V92.186a20.6583,20.6583,0,0,0-20.6348-20.6352h-103.3A21.4213,21.4213,0,0,0,317.126,92.9482V110.584h-.625a.6217.6217,0,0,0-.6211.6211v8.72a.6213.6213,0,0,0,.6211.6206h.625v11.6313h-.625a.6214.6214,0,0,0-.6211.6207v18.686a.6217.6217,0,0,0,.6211.6211h.625v7.4785ZM442.5889,360.1484H339.1924a14.5227,14.5227,0,0,1-14.1807-14.123V91.3677c0-7.3887,6.2285-13.1768,14.1807-13.1768l12.5254-.0034c2.3017-.0171,3.5049.124,3.666,3.5127a5.5822,5.5822,0,0,0,1.5058,3.6362,8.3854,8.3854,0,0,0,3.5938,2.2222,10.9576,10.9576,0,0,0,3.1436.5981h54.6376a11.1653,11.1653,0,0,0,3.1416-.6645,8.3941,8.3941,0,0,0,3.6045-2.1582,5.3332,5.3332,0,0,0,1.4981-3.5532c.1641-3.45,1.4433-3.5933,3.8047-3.5913l12.2754.0014a12.77,12.77,0,0,1,13.2295,13.1768V346.0254C455.8184,353.9453,450.0068,360.1484,442.5889,360.1484ZM339.1924,79.4409c-7.251,0-12.9307,5.2388-12.9307,11.9268V346.0254a13.24,13.24,0,0,0,12.9307,12.873H442.5889c6.7177,0,11.9795-5.6543,11.9795-12.873V91.3677a11.5613,11.5613,0,0,0-11.9795-11.9268L430.3076,79.44c-2.1582-.0093-2.4355-.0127-2.5508,2.4013a6.6045,6.6045,0,0,1-1.8359,4.3491,9.6409,9.6409,0,0,1-4.1387,2.4947,12.105,12.105,0,0,1-3.5176.7221H363.627a12.1066,12.1066,0,0,1-3.5176-.6552,9.6574,9.6574,0,0,1-4.1387-2.5679,6.7831,6.7831,0,0,1-1.835-4.4238c-.1123-2.3438-.3759-2.3448-2.4062-2.3223l-.584.0034Z"></path><circle class="h" cx="405.1819" cy="80.4873" r="2.6934"></circle><path class="c" d="M405.1816,83.8057A3.3184,3.3184,0,1,1,408.5,80.4873,3.322,3.322,0,0,1,405.1816,83.8057Zm0-5.3868a2.0684,2.0684,0,1,0,2.0684,2.0684A2.0706,2.0706,0,0,0,405.1816,78.4189Z"></path><path class="c" d="M398.1621,81.3618H370.92a.625.625,0,0,1,0-1.25h27.2422a.625.625,0,0,1,0,1.25Z"></path></svg>